<?xml version="1.0" encoding="utf-8"?>
<!-- Generator: Adobe Illustrator 16.0.3, SVG Export Plug-In . SVG Version: 6.00 Build 0)  -->
<!DOCTYPE svg PUBLIC "-//W3C//DTD SVG 1.1//EN" "http://www.w3.org/Graphics/SVG/1.1/DTD/svg11.dtd">
<svg version="1.1" id="Black" xmlns="http://www.w3.org/2000/svg" xmlns:xlink="http://www.w3.org/1999/xlink" x="0px" y="0px"
	 width="310px" height="160px" viewBox="0 0 310 160" enable-background="new 0 0 310 160" xml:space="preserve">
<g>
	<g>
		<g id="jazz_1_">
			<g>
				<path d="M117.154,103.389h2.543v17.178c0,2.642-0.205,4.479-0.614,5.512c-0.41,1.029-1.094,1.854-2.05,2.473
					c-0.958,0.617-2.117,0.928-3.478,0.928c-1.026,0-2.037-0.199-3.035-0.599s-2.102-1.1-3.313-2.104l1.35-2.021
					c1.328,0.936,2.432,1.594,3.311,1.975c0.578,0.252,1.143,0.381,1.698,0.381c0.727,0,1.39-0.219,1.984-0.658
					c0.596-0.438,1.011-1.02,1.248-1.746c0.237-0.729,0.356-2.135,0.356-4.223V103.389z"/>
				<path d="M113.555,130.477c-1.148,0-2.294-0.225-3.406-0.668c-1.09-0.436-2.294-1.197-3.581-2.264l-0.694-0.575l2.419-3.625
					l0.838,0.591c1.266,0.893,2.32,1.521,3.133,1.873c1.034,0.45,1.93,0.396,2.689-0.162c0.429-0.315,0.72-0.726,0.892-1.252
					c0.14-0.431,0.307-1.457,0.307-3.914v-18.092h4.543v18.178c0,2.795-0.224,4.719-0.684,5.879
					c-0.487,1.225-1.306,2.214-2.437,2.945C116.456,130.111,115.104,130.477,113.555,130.477z M108.551,126.563
					c0.851,0.642,1.635,1.105,2.34,1.388c0.875,0.35,1.771,0.526,2.665,0.526c1.158,0,2.146-0.259,2.937-0.769
					c0.784-0.507,1.328-1.162,1.662-2.002c0.248-0.624,0.543-2.022,0.543-5.142v-16.178h-0.543v16.092
					c0,2.244-0.129,3.685-0.405,4.532c-0.302,0.927-0.842,1.681-1.606,2.242c-1.317,0.976-2.994,1.12-4.674,0.39
					c-0.75-0.326-1.619-0.816-2.641-1.494L108.551,126.563z"/>
			</g>
			<g>
				<path d="M143.371,103.389l11.866,25.446h-2.747l-4.002-8.373h-10.962l-3.964,8.373h-2.837l12.022-25.446H143.371
					L143.371,103.389z M143.05,108.795l-4.361,9.21h8.7L143.05,108.795z"/>
				<path d="M156.807,129.835h-4.947l-4.002-8.373h-9.699l-3.964,8.373h-5.048l12.967-27.446h1.895L156.807,129.835z
					 M153.121,127.835h0.546l-10.612-22.758l-10.751,22.758h0.625l3.964-8.373h12.225L153.121,127.835z M148.966,119.005h-11.857
					l5.943-12.552L148.966,119.005z M140.269,117.005h5.543l-2.765-5.868L140.269,117.005z"/>
			</g>
			<g>
				<path d="M165.281,105.846v-2.457h13.424l-10.631,22.957h10.094v2.489h-14.029l10.723-22.989H165.281z"/>
				<path d="M179.168,129.835h-16.6l10.723-22.989h-9.01v-4.457h15.988l-10.631,22.957h9.528L179.168,129.835L179.168,129.835z
					 M165.709,127.835h11.459v-0.489h-10.659l10.632-22.957h-10.858v0.457h10.149L165.709,127.835z"/>
			</g>
			<g>
				<path d="M189.369,105.846v-2.457h13.424l-10.629,22.957h10.094v2.489h-14.029l10.723-22.989H189.369z"/>
				<path d="M203.258,129.835h-16.599l10.722-22.989h-9.012v-4.457h15.988l-10.629,22.957h9.528L203.258,129.835L203.258,129.835z
					 M189.798,127.835h11.46v-0.489H190.6l10.629-22.957H190.37v0.457h10.149L189.798,127.835z"/>
			</g>
		</g>
		<g id="drumming_1_">
			<g>
				<path d="M31.981,56.611V31.166h5.276c3.806,0,6.567,0.307,8.286,0.916c2.467,0.865,4.397,2.365,5.787,4.498
					c1.39,2.134,2.085,4.677,2.085,7.628c0,2.55-0.552,4.791-1.652,6.73c-1.102,1.937-2.531,3.367-4.29,4.289
					c-1.759,0.923-4.224,1.384-7.396,1.384H31.981z M34.421,54.207h2.94c3.517,0,5.956-0.219,7.317-0.658
					c1.914-0.621,3.419-1.74,4.515-3.361c1.095-1.617,1.643-3.599,1.643-5.937c0-2.453-0.593-4.55-1.781-6.289
					c-1.188-1.741-2.843-2.934-4.965-3.579c-1.591-0.483-4.215-0.727-7.87-0.727h-1.799V54.207z"/>
				<path d="M40.077,57.611h-9.096V30.166h6.276c3.952,0,6.771,0.318,8.62,0.974c2.666,0.935,4.784,2.582,6.291,4.895
					c1.491,2.289,2.247,5.039,2.247,8.174c0,2.708-0.6,5.138-1.782,7.223c-1.194,2.1-2.774,3.674-4.695,4.682
					C46.016,57.121,43.445,57.611,40.077,57.611z M32.981,55.611h7.096c2.994,0,5.326-0.427,6.932-1.27
					c1.577-0.826,2.884-2.138,3.885-3.898c1.009-1.779,1.521-3.877,1.521-6.235c0-2.741-0.647-5.124-1.923-7.082
					c-1.26-1.934-3.037-3.313-5.28-4.1c-1.611-0.571-4.287-0.86-7.955-0.86h-4.276V55.611z M37.361,55.207h-3.94V32.656h2.799
					c3.785,0,6.454,0.252,8.16,0.77c2.336,0.71,4.187,2.046,5.501,3.973c1.297,1.898,1.955,4.205,1.955,6.853
					c0,2.533-0.611,4.719-1.815,6.498c-1.216,1.8-2.91,3.062-5.034,3.751C43.511,54.976,41.017,55.207,37.361,55.207z
					 M35.421,53.207h1.94c3.396,0,5.755-0.205,7.01-0.61c1.712-0.556,3.019-1.527,3.993-2.969c0.977-1.442,1.472-3.251,1.472-5.377
					c0-2.238-0.541-4.165-1.606-5.725c-1.066-1.562-2.515-2.604-4.431-3.187c-1.493-0.453-4.043-0.683-7.579-0.683h-0.799V53.207z"
					/>
			</g>
			<g>
				<path d="M65.568,31.166h5.068c2.826,0,4.74,0.115,5.743,0.347c1.51,0.346,2.739,1.087,3.685,2.226
					c0.945,1.138,1.418,2.536,1.418,4.199c0,1.386-0.326,2.604-0.978,3.654c-0.651,1.051-1.583,1.845-2.793,2.383
					c-1.211,0.537-2.883,0.812-5.016,0.822l9.149,11.814h-3.146l-9.15-11.814H68.11v11.814h-2.542V31.166z M68.11,33.656v8.65
					l4.384,0.034c1.698,0,2.955-0.162,3.768-0.484c0.814-0.323,1.45-0.84,1.907-1.547c0.457-0.711,0.684-1.503,0.684-2.382
					c0-0.852-0.231-1.627-0.694-2.326c-0.461-0.697-1.068-1.194-1.818-1.495c-0.751-0.299-1.998-0.45-3.742-0.45H68.11z"/>
				<path d="M83.883,57.611h-5.675L69.11,45.864v11.747h-4.542V30.166h6.068c2.931,0,4.883,0.122,5.968,0.373
					c1.722,0.394,3.146,1.256,4.229,2.562c1.094,1.317,1.648,2.945,1.648,4.837c0,1.568-0.38,2.976-1.128,4.181
					c-0.754,1.218-1.843,2.15-3.236,2.77c-0.939,0.417-2.079,0.687-3.454,0.817L83.883,57.611z M79.188,55.611h0.617l-9.143-11.805
					l2.028-0.009c1.982-0.009,3.535-0.257,4.615-0.736c1.033-0.459,1.801-1.112,2.348-1.996c0.558-0.898,0.828-1.92,0.828-3.127
					c0-1.434-0.388-2.598-1.188-3.56c-0.808-0.973-1.834-1.591-3.139-1.89c-0.924-0.214-2.781-0.322-5.52-0.322h-4.068v23.445h0.542
					V43.797h2.928L79.188,55.611z M72.494,43.34l-5.384-0.042V32.656h5.489c1.886,0,3.231,0.17,4.111,0.521
					c0.945,0.379,1.712,1.009,2.283,1.873c0.57,0.86,0.86,1.829,0.86,2.877c0,1.069-0.284,2.053-0.843,2.923
					c-0.573,0.886-1.373,1.537-2.379,1.936C75.688,43.159,74.335,43.34,72.494,43.34z M69.11,41.314l3.392,0.026
					c1.938,0,2.916-0.225,3.392-0.414c0.62-0.246,1.089-0.625,1.435-1.16c0.352-0.547,0.524-1.15,0.524-1.839
					c0-0.658-0.172-1.238-0.527-1.773c-0.348-0.526-0.792-0.892-1.357-1.12c-0.432-0.171-1.369-0.377-3.369-0.377h-3.49V41.314z"/>
			</g>
			<g>
				<path d="M94.104,31.166h2.543v15.36c0,1.823,0.035,2.958,0.104,3.407c0.126,1.005,0.42,1.843,0.882,2.518
					c0.46,0.676,1.17,1.239,2.128,1.695c0.957,0.457,1.919,0.684,2.888,0.684c0.842,0,1.649-0.179,2.422-0.537
					c0.772-0.357,1.418-0.852,1.936-1.487c0.52-0.634,0.9-1.4,1.143-2.301c0.172-0.646,0.259-1.971,0.259-3.979v-15.36h2.543v15.36
					c0,2.272-0.222,4.108-0.666,5.509c-0.443,1.401-1.332,2.622-2.665,3.659c-1.332,1.038-2.943,1.558-4.834,1.558
					c-2.053,0-3.811-0.491-5.276-1.472c-1.464-0.979-2.444-2.275-2.94-3.891c-0.312-0.993-0.467-2.779-0.467-5.363V31.166
					L94.104,31.166z"/>
				<path d="M102.787,58.252c-2.244,0-4.206-0.552-5.833-1.641c-1.653-1.105-2.777-2.596-3.34-4.428
					c-0.343-1.092-0.511-2.944-0.511-5.657v-16.36h4.543v16.36c0,2.308,0.058,3.03,0.092,3.256c0.109,0.866,0.35,1.565,0.719,2.105
					c0.356,0.522,0.938,0.978,1.733,1.356c1.517,0.725,3.061,0.79,4.459,0.143c0.641-0.296,1.158-0.693,1.582-1.212
					c0.428-0.522,0.748-1.17,0.952-1.929c0.083-0.314,0.225-1.219,0.225-3.719v-16.36h4.543v16.36c0,2.363-0.24,4.318-0.713,5.811
					c-0.504,1.593-1.515,2.988-3.004,4.146C106.729,57.657,104.896,58.252,102.787,58.252z M95.104,32.166v14.36
					c0,3.078,0.229,4.453,0.421,5.063c0.432,1.407,1.263,2.504,2.542,3.359c1.292,0.865,2.88,1.303,4.721,1.303
					c1.676,0,3.056-0.44,4.219-1.347c1.165-0.906,1.947-1.973,2.326-3.172c0.411-1.298,0.62-3.05,0.62-5.208v-14.36h-0.543v14.36
					c0,2.139-0.093,3.485-0.293,4.236c-0.279,1.037-0.729,1.938-1.336,2.678c-0.61,0.748-1.381,1.34-2.29,1.761
					c-1.925,0.892-4.118,0.823-6.16-0.152c-1.118-0.532-1.967-1.217-2.524-2.035c-0.549-0.803-0.902-1.798-1.047-2.956
					c-0.046-0.297-0.112-1.018-0.112-3.532v-14.36h-0.544V32.166z"/>
			</g>
			<g>
				<path d="M123.141,56.611l3.643-25.445h0.414l10.344,20.878l10.244-20.878h0.407l3.662,25.445h-2.494l-2.513-18.198
					l-8.998,18.198h-0.65l-9.104-18.337l-2.5,18.337H123.141z"/>
				<path d="M153.009,57.611h-4.52l-2.188-15.838l-7.832,15.838h-1.891l-7.933-15.978l-2.178,15.978h-4.481l3.929-27.445h1.902
					l9.719,19.617l9.625-19.617h1.896L153.009,57.611z M150.232,55.611h0.468l-3.128-21.738l-10.026,20.433L127.41,33.848
					l-3.116,21.764h0.429l2.822-20.696l9.979,20.099l9.87-19.96L150.232,55.611z"/>
			</g>
			<g>
				<path d="M162.779,56.611l3.644-25.445h0.414l10.345,20.878l10.244-20.878h0.406l3.663,25.445h-2.494l-2.515-18.198
					l-8.995,18.198h-0.649l-9.104-18.337l-2.5,18.337H162.779z"/>
				<path d="M192.648,57.611h-4.52l-2.188-15.838l-7.83,15.838h-1.891l-7.933-15.978l-2.179,15.978h-4.484l3.93-27.445h1.901
					l9.721,19.617l9.625-19.617h1.896L192.648,57.611z M189.872,55.611h0.469l-3.13-21.738l-10.025,20.432l-10.137-20.458
					l-3.115,21.764h0.433l2.821-20.696l9.979,20.099l9.866-19.96L189.872,55.611z"/>
			</g>
			<g>
				<path d="M203.216,31.166h2.546v25.445h-2.546V31.166z"/>
				<path d="M206.762,57.611h-4.546V30.166h4.546V57.611z M204.216,55.611h0.546V32.166h-0.546V55.611z"/>
			</g>
			<g>
				<path d="M218.689,56.611V31.166h0.555l16.938,19.505V31.166h2.506v25.445h-0.567l-16.8-19.267v19.268L218.689,56.611
					L218.689,56.611z"/>
				<path d="M222.32,57.612h-4.631V30.166h2.011l15.481,17.828V30.166h4.506v27.445h-2.023L222.32,40.012V57.612z M219.689,55.611
					h0.631V34.675l17.367,19.919V32.166h-0.506v21.182l-17.492-20.144V55.611z"/>
			</g>
			<g>
				<path d="M276.512,35.438l-1.97,1.869c-1.421-1.396-2.974-2.453-4.663-3.175c-1.688-0.721-3.336-1.08-4.938-1.08
					c-1.996,0-3.896,0.49-5.703,1.471c-1.803,0.979-3.201,2.308-4.192,3.986c-0.991,1.677-1.487,3.451-1.487,5.32
					c0,1.912,0.512,3.732,1.541,5.457c1.025,1.725,2.443,3.079,4.252,4.063c1.813,0.987,3.795,1.48,5.95,1.48
					c2.619,0,4.833-0.738,6.646-2.215c1.811-1.477,2.883-3.389,3.218-5.742h-8.114v-2.457h10.97
					c-0.024,3.934-1.19,7.054-3.502,9.367c-2.313,2.312-5.408,3.469-9.283,3.469c-4.703,0-8.43-1.604-11.174-4.81
					c-2.11-2.467-3.164-5.321-3.164-8.563c0-2.41,0.604-4.653,1.813-6.729c1.211-2.075,2.872-3.7,4.981-4.87
					c2.11-1.17,4.496-1.756,7.16-1.756c2.156,0,4.188,0.391,6.09,1.167C272.846,32.473,274.701,33.721,276.512,35.438z"/>
				<path d="M265.234,58.251c-4.988,0-9.004-1.736-11.935-5.16c-2.259-2.641-3.403-5.74-3.403-9.213
					c0-2.579,0.655-5.012,1.949-7.232c1.299-2.225,3.104-3.988,5.361-5.241c2.252-1.249,4.824-1.881,7.646-1.881
					c2.271,0,4.446,0.417,6.467,1.241c2.013,0.828,3.988,2.156,5.88,3.948l0.765,0.725l-3.435,3.26l-0.689-0.677
					c-1.323-1.301-2.789-2.3-4.354-2.969c-3.484-1.488-6.793-1.266-9.771,0.351c-1.635,0.887-2.916,2.104-3.809,3.616
					c-0.896,1.514-1.349,3.133-1.349,4.812c0,1.724,0.471,3.388,1.398,4.945c0.929,1.561,2.23,2.804,3.871,3.697
					c1.654,0.901,3.496,1.358,5.473,1.358c2.403,0,4.37-0.651,6.014-1.99c1.319-1.076,2.186-2.381,2.625-3.967h-7.89v-4.457h12.976
					l-0.006,1.006c-0.026,4.187-1.304,7.574-3.795,10.068C272.727,56.985,269.365,58.251,265.234,58.251z M264.854,31.523
					c-2.478,0-4.724,0.548-6.676,1.63c-1.938,1.076-3.488,2.59-4.604,4.5c-1.113,1.911-1.678,4.005-1.678,6.225
					c0,3.025,0.955,5.613,2.924,7.913c2.568,3.001,5.976,4.46,10.414,4.46c3.632,0,6.438-1.039,8.576-3.176
					c1.938-1.939,2.98-4.453,3.176-7.66h-8.937v0.457h8.267l-0.161,1.141c-0.37,2.597-1.573,4.742-3.576,6.376
					c-1.987,1.619-4.437,2.44-7.277,2.44c-2.313,0-4.478-0.539-6.429-1.602c-1.96-1.066-3.52-2.557-4.633-4.43
					c-1.115-1.87-1.682-3.878-1.682-5.968c0-2.042,0.547-4.003,1.625-5.829c1.08-1.828,2.621-3.293,4.576-4.356
					c3.514-1.907,7.469-2.158,11.512-0.432c1.52,0.649,2.949,1.563,4.264,2.722l0.506-0.479c-1.465-1.265-2.968-2.219-4.479-2.84
					C268.787,31.891,266.865,31.523,264.854,31.523z"/>
			</g>
		</g>
	</g>
	<g id="_x2D_into-_1_">
		<g id="into_1_">
			<g>
				<path d="M130.287,73.49h1.301v13.019h-1.301V73.49z"/>
				<rect x="129.412" y="72.615" width="3.051" height="14.769"/>
			</g>
			<g>
				<path d="M138.204,86.509V73.49h0.283l8.664,9.979V73.49h1.283v13.019h-0.292l-8.594-9.858v9.858H138.204z"/>
				<polygon points="149.309,87.384 147.744,87.384 140.423,78.986 140.423,87.384 137.329,87.384 137.329,72.615 138.886,72.615 
					146.276,81.128 146.276,72.615 149.309,72.615 				"/>
			</g>
			<g>
				<path d="M153.937,74.765V73.49h7.133v1.274h-2.903v11.744h-1.326V74.765H153.937z"/>
				<polygon points="159.042,87.383 155.966,87.383 155.966,75.64 153.062,75.64 153.062,72.615 161.945,72.615 161.945,75.639 
					159.042,75.639 				"/>
			</g>
			<g>
				<path d="M172.771,73.163c1.973,0,3.621,0.658,4.948,1.974c1.33,1.314,1.992,2.934,1.992,4.859c0,1.904-0.662,3.521-1.987,4.85
					c-1.324,1.327-2.939,1.991-4.849,1.991c-1.933,0-3.562-0.661-4.89-1.981s-1.992-2.92-1.992-4.795
					c0-1.253,0.303-2.412,0.906-3.479c0.606-1.068,1.432-1.904,2.479-2.51C170.423,73.465,171.555,73.163,172.771,73.163z
					 M172.827,74.428c-0.962,0-1.875,0.252-2.738,0.754c-0.862,0.501-1.537,1.177-2.021,2.027c-0.485,0.851-0.729,1.798-0.729,2.844
					c0,1.549,0.537,2.855,1.608,3.92c1.074,1.063,2.365,1.598,3.879,1.598c1.012,0,1.947-0.244,2.807-0.732
					c0.86-0.49,1.53-1.161,2.012-2.012c0.482-0.85,0.724-1.793,0.724-2.835c0-1.033-0.239-1.968-0.724-2.804
					c-0.479-0.835-1.158-1.504-2.033-2.005C174.736,74.68,173.811,74.428,172.827,74.428z"/>
				<path d="M172.877,87.712c-2.161,0-4.013-0.752-5.506-2.235c-1.493-1.484-2.251-3.309-2.251-5.417
					c0-1.399,0.344-2.715,1.021-3.91c0.684-1.202,1.625-2.156,2.801-2.836c1.173-0.68,2.461-1.024,3.83-1.024
					c2.201,0,4.074,0.75,5.565,2.228c1.493,1.476,2.251,3.32,2.251,5.48c0,2.137-0.755,3.978-2.244,5.468
					C176.855,86.955,175.018,87.712,172.877,87.712z M172.827,75.303c-0.812,0-1.563,0.208-2.3,0.635
					c-0.733,0.427-1.289,0.984-1.698,1.703c-0.414,0.726-0.615,1.515-0.615,2.412c0,1.317,0.44,2.396,1.351,3.299
					c0.912,0.903,1.979,1.344,3.263,1.344c0.864,0,1.643-0.202,2.374-0.618c0.726-0.413,1.275-0.964,1.683-1.683
					c0.41-0.723,0.609-1.509,0.609-2.403c0-0.888-0.198-1.662-0.605-2.366c-0.405-0.707-0.966-1.257-1.71-1.684
					C174.428,75.512,173.659,75.303,172.827,75.303z"/>
			</g>
		</g>
		<g id="_x3E__1_">
			<g>
				<rect x="206.5" y="78.5" width="44" height="3"/>
			</g>
		</g>
		<g id="_x3C__1_">
			<g>
				<rect x="59.5" y="78.5" width="44" height="3"/>
			</g>
		</g>
	</g>
</g>
<g id="Black_Border">
	<path d="M0,0v160h310V0H0z M305,155H5V5h300V155z"/>
</g>
</svg>
